<svg xmlns="http://www.w3.org/2000/svg" width="154" height="13.666" viewBox="0 0 154 13.666">
  <g id="Logo_astro" transform="translate(-259.463 -143.312)">
    <g id="Grupo_1" data-name="Grupo 1" transform="translate(259.463 143.312)">
      <path id="Trazado_1" data-name="Trazado 1" d="M259.463,143.83h8.659v.659H260.2v5.477h7.153v.64H260.2v5.741h8.057v.658h-8.791Z" transform="translate(-259.463 -143.585)"/>
      <path id="Trazado_2" data-name="Trazado 2" d="M284.65,143.83h.734v12.518h7.924v.658H284.65Z" transform="translate(-272.737 -143.585)"/>
      <path id="Trazado_3" data-name="Trazado 3" d="M336.457,152.649a8.182,8.182,0,0,0,3.765,1.167c.96,0,1.543-.358,1.543-.923,0-1.769-6.72-.508-6.72-5.477,0-2.24,1.845-4.1,5.026-4.1a11.606,11.606,0,0,1,4.951,1.2l-1.318,2.8a7.6,7.6,0,0,0-3.445-.866c-.922,0-1.45.395-1.45.922,0,1.732,6.72.433,6.72,5.459,0,2.316-1.77,4.141-5.289,4.141a11.253,11.253,0,0,1-5.5-1.525Z" transform="translate(-299.138 -143.313)"/>
      <path id="Trazado_4" data-name="Trazado 4" d="M363.318,147.03h-4.1v-3.2h11.821v3.2h-4.1v9.976h-3.614Z" transform="translate(-312.035 -143.585)"/>
      <path id="Trazado_5" data-name="Trazado 5" d="M387.306,143.83h5.929c4.047,0,5.4,2.108,5.4,4.329a3.758,3.758,0,0,1-2.221,3.577l2.353,5.271h-3.858l-1.732-4.668h-2.222v4.668h-3.651Zm5.892,5.948c1.111,0,1.788-.546,1.788-1.562,0-1.054-.716-1.563-1.788-1.563h-2.24v3.124Z" transform="translate(-326.84 -143.585)"/>
      <path id="Trazado_6" data-name="Trazado 6" d="M421.088,143.313a6.834,6.834,0,1,1-6.965,6.833A6.659,6.659,0,0,1,421.088,143.313Zm0,10.635c2.09,0,3.294-1.637,3.294-3.8s-1.186-3.8-3.294-3.8c-2.09,0-3.275,1.638-3.275,3.8S419.018,153.948,421.088,153.948Z" transform="translate(-340.974 -143.313)"/>
      <path id="Trazado_7" data-name="Trazado 7" d="M447.071,143.83h3.445l4.932,7.492V143.83h3.426v13.176h-3.426l-4.951-7.454v7.454h-3.426Z" transform="translate(-358.338 -143.585)"/>
      <path id="Trazado_8" data-name="Trazado 8" d="M505.084,143.83h3.67v8.094a2.025,2.025,0,0,0,2.127,2.259,2.048,2.048,0,0,0,2.146-2.259V143.83h3.652v8.075c0,3.632-2.315,5.346-5.8,5.346-3.464,0-5.8-1.714-5.8-5.346Z" transform="translate(-388.913 -143.585)"/>
      <path id="Trazado_9" data-name="Trazado 9" d="M536.681,147.03h-4.1v-3.2H544.4v3.2h-4.1v9.976h-3.614Z" transform="translate(-403.402 -143.585)"/>
      <path id="Trazado_10" data-name="Trazado 10" d="M312.848,143.312c-3.464,0-5.8,1.713-5.8,5.346v8.075h3.67v-3.265h4.273v3.265h3.652v-8.075C318.646,145.025,316.331,143.312,312.848,143.312Zm-2.127,6.956v-1.628a2.025,2.025,0,0,1,2.127-2.258,2.048,2.048,0,0,1,2.146,2.258v1.628Z" transform="translate(-284.543 -143.312)"/>
      <path id="Trazado_11" data-name="Trazado 11" d="M482.153,143.312c-3.464,0-5.8,1.713-5.8,5.346v8.075h3.67v-3.265H484.3v3.265h3.652v-8.075C487.95,145.025,485.635,143.312,482.153,143.312Zm-2.127,6.956v-1.628a2.025,2.025,0,0,1,2.127-2.258,2.048,2.048,0,0,1,2.145,2.258v1.628Z" transform="translate(-373.772 -143.312)"/>
      <path id="Trazado_12" data-name="Trazado 12" d="M566.347,143.312c-3.464,0-5.8,1.713-5.8,5.346v8.075h3.67v-3.265h4.273v3.265h3.652v-8.075C572.145,145.025,569.83,143.312,566.347,143.312Zm-2.127,6.956v-1.628a2.025,2.025,0,0,1,2.127-2.258,2.048,2.048,0,0,1,2.146,2.258v1.628Z" transform="translate(-418.145 -143.312)"/>
    </g>
  </g>
</svg>
